<mxfile host="app.diagrams.net" modified="2021-09-13T06:18:28.977Z" agent="5.0 (Windows NT 10.0; Win64; x64) AppleWebKit/537.36 (KHTML, like Gecko) Chrome/93.0.4577.63 Safari/537.36" etag="YeI4D92ldHYo5FZy6B1j" version="15.2.1" type="github">
  <diagram id="3og0gf8gtnWCEk_-Y0HO" name="Page-1">
    <mxGraphModel dx="260" dy="951" grid="0" gridSize="10" guides="1" tooltips="1" connect="1" arrows="1" fold="1" page="0" pageScale="1" pageWidth="850" pageHeight="1100" math="0" shadow="0">
      <root>
        <mxCell id="0" />
        <mxCell id="1" parent="0" />
        <mxCell id="ZslXiAwdW-3EuPROBi18-87" value="&lt;b&gt;&lt;font color=&quot;#660000&quot; style=&quot;font-size: 18px&quot;&gt;ONE HOUSING GROUP TARGET ARCHITECTURE (AZURE) - TEST &amp;amp; DEV&lt;/font&gt;&lt;/b&gt;" style="text;html=1;strokeColor=none;fillColor=none;align=center;verticalAlign=middle;whiteSpace=wrap;rounded=0;" parent="1" vertex="1">
          <mxGeometry x="1243" y="-223" width="656" height="20" as="geometry" />
        </mxCell>
        <mxCell id="ZslXiAwdW-3EuPROBi18-88" value="" style="rounded=1;whiteSpace=wrap;html=1;strokeColor=#663300;fillColor=none;dashed=1;" parent="1" vertex="1">
          <mxGeometry x="1241.98" y="-229" width="658.04" height="32" as="geometry" />
        </mxCell>
        <mxCell id="rP1AdKypDYAx6xf0p9CC-25" value="" style="aspect=fixed;html=1;points=[];align=center;image;fontSize=12;image=img/lib/azure2/networking/Virtual_Networks.svg;dashed=1;dashPattern=1 2;strokeColor=#000000;strokeWidth=1;fillColor=none;gradientColor=#ffffff;" parent="1" vertex="1">
          <mxGeometry x="1623.8200000000002" y="130" width="35.18" height="21" as="geometry" />
        </mxCell>
        <mxCell id="rP1AdKypDYAx6xf0p9CC-26" value="" style="aspect=fixed;html=1;points=[];align=center;image;fontSize=12;image=img/lib/azure2/networking/Virtual_Networks.svg;dashed=1;dashPattern=1 2;strokeColor=#000000;strokeWidth=1;fillColor=none;gradientColor=#ffffff;" parent="1" vertex="1">
          <mxGeometry x="1980" y="120" width="35.18" height="21" as="geometry" />
        </mxCell>
        <mxCell id="iWLfDNLfmEGilAZp9pBV-6" style="edgeStyle=orthogonalEdgeStyle;rounded=0;orthogonalLoop=1;jettySize=auto;html=1;entryX=0.04;entryY=0.521;entryDx=0;entryDy=0;entryPerimeter=0;dashed=1;startArrow=classic;startFill=1;strokeColor=#3333FF;" parent="1" source="rP1AdKypDYAx6xf0p9CC-27" target="rP1AdKypDYAx6xf0p9CC-39" edge="1">
          <mxGeometry relative="1" as="geometry" />
        </mxCell>
        <mxCell id="rP1AdKypDYAx6xf0p9CC-27" value="" style="rounded=0;whiteSpace=wrap;html=1;dashed=1;dashPattern=1 2;strokeWidth=2;fillColor=none;gradientColor=#ffffff;strokeColor=#3399FF;" parent="1" vertex="1">
          <mxGeometry x="1400" y="-109" width="240" height="249" as="geometry" />
        </mxCell>
        <mxCell id="rP1AdKypDYAx6xf0p9CC-28" value="" style="aspect=fixed;html=1;points=[];align=center;image;fontSize=12;image=img/lib/azure2/networking/Firewalls.svg;dashed=1;dashPattern=1 2;strokeColor=#3399FF;strokeWidth=2;fillColor=none;gradientColor=#ffffff;" parent="1" vertex="1">
          <mxGeometry x="1425.22" y="-10" width="57.98" height="49" as="geometry" />
        </mxCell>
        <mxCell id="rP1AdKypDYAx6xf0p9CC-29" value="" style="aspect=fixed;html=1;points=[];align=center;image;fontSize=12;image=img/lib/azure2/networking/Application_Gateways.svg;dashed=1;dashPattern=1 2;strokeColor=#3399FF;strokeWidth=2;fillColor=none;gradientColor=#ffffff;" parent="1" vertex="1">
          <mxGeometry x="1534.29" y="-96.04" width="50" height="50" as="geometry" />
        </mxCell>
        <mxCell id="rP1AdKypDYAx6xf0p9CC-30" value="" style="aspect=fixed;html=1;points=[];align=center;image;fontSize=12;image=img/lib/azure2/identity/Azure_AD_Domain_Services.svg;dashed=1;dashPattern=1 2;strokeColor=#3399FF;strokeWidth=2;fillColor=none;gradientColor=#ffffff;" parent="1" vertex="1">
          <mxGeometry x="1537.5000000000002" y="-20.5" width="47" height="42.97" as="geometry" />
        </mxCell>
        <mxCell id="rP1AdKypDYAx6xf0p9CC-31" value="" style="aspect=fixed;html=1;points=[];align=center;image;fontSize=12;image=img/lib/azure2/networking/Virtual_WANs.svg;dashed=1;dashPattern=1 2;strokeColor=#3399FF;strokeWidth=2;fillColor=none;gradientColor=#ffffff;" parent="1" vertex="1">
          <mxGeometry x="1434.77" y="-91.59" width="41.73" height="41.09" as="geometry" />
        </mxCell>
        <mxCell id="rP1AdKypDYAx6xf0p9CC-32" value="" style="verticalLabelPosition=bottom;html=1;verticalAlign=top;align=center;strokeColor=none;fillColor=#00BEF2;shape=mxgraph.azure.computer;pointerEvents=1;dashed=1;dashPattern=1 2;" parent="1" vertex="1">
          <mxGeometry x="1507.5" y="59" width="30" height="30" as="geometry" />
        </mxCell>
        <mxCell id="rP1AdKypDYAx6xf0p9CC-33" value="Azure VWAN" style="text;html=1;strokeColor=none;fillColor=none;align=center;verticalAlign=middle;whiteSpace=wrap;rounded=0;dashed=1;dashPattern=1 2;" parent="1" vertex="1">
          <mxGeometry x="1420.14" y="-50.5" width="74.36" height="20" as="geometry" />
        </mxCell>
        <mxCell id="rP1AdKypDYAx6xf0p9CC-34" value="Azure Firewall" style="text;html=1;strokeColor=none;fillColor=none;align=center;verticalAlign=middle;whiteSpace=wrap;rounded=0;dashed=1;dashPattern=1 2;" parent="1" vertex="1">
          <mxGeometry x="1402.9600000000003" y="39.00000000000001" width="99.36" height="20" as="geometry" />
        </mxCell>
        <mxCell id="rP1AdKypDYAx6xf0p9CC-35" value="API Gateway" style="text;html=1;strokeColor=none;fillColor=none;align=center;verticalAlign=middle;whiteSpace=wrap;rounded=0;dashed=1;dashPattern=1 2;" parent="1" vertex="1">
          <mxGeometry x="1515.6400000000003" y="-50.999999999999986" width="99.36" height="20" as="geometry" />
        </mxCell>
        <mxCell id="rP1AdKypDYAx6xf0p9CC-36" value="AzureBastionSubnet" style="text;html=1;strokeColor=none;fillColor=none;align=center;verticalAlign=middle;whiteSpace=wrap;rounded=0;dashed=1;dashPattern=1 2;" parent="1" vertex="1">
          <mxGeometry x="1473.66" y="100" width="117.36" as="geometry" />
        </mxCell>
        <mxCell id="rP1AdKypDYAx6xf0p9CC-37" value="Domain Controller" style="text;html=1;strokeColor=none;fillColor=none;align=center;verticalAlign=middle;whiteSpace=wrap;rounded=0;dashed=1;dashPattern=1 2;" parent="1" vertex="1">
          <mxGeometry x="1510.96" y="22.47" width="108.73" height="20" as="geometry" />
        </mxCell>
        <mxCell id="pTDjZlMbSXBoXlG2Xin--13" style="edgeStyle=orthogonalEdgeStyle;rounded=0;orthogonalLoop=1;jettySize=auto;html=1;entryX=0.617;entryY=0.004;entryDx=0;entryDy=0;entryPerimeter=0;startArrow=classic;startFill=1;dashed=1;strokeColor=#3333FF;" edge="1" parent="1" source="rP1AdKypDYAx6xf0p9CC-39" target="pTDjZlMbSXBoXlG2Xin--2">
          <mxGeometry relative="1" as="geometry" />
        </mxCell>
        <mxCell id="rP1AdKypDYAx6xf0p9CC-39" value="" style="rounded=0;whiteSpace=wrap;html=1;dashed=1;dashPattern=1 2;strokeColor=#3399FF;strokeWidth=2;fillColor=none;gradientColor=#ffffff;" parent="1" vertex="1">
          <mxGeometry x="1740" y="-109" width="260.04" height="239" as="geometry" />
        </mxCell>
        <mxCell id="rP1AdKypDYAx6xf0p9CC-40" value="" style="aspect=fixed;html=1;points=[];align=center;image;fontSize=12;image=img/lib/azure2/compute/Disks_Classic.svg;dashed=1;dashPattern=1 2;strokeColor=#3399FF;strokeWidth=2;fillColor=none;gradientColor=#ffffff;" parent="1" vertex="1">
          <mxGeometry x="1870.4299999999998" y="-31.000000000000004" width="28.92" height="28.41" as="geometry" />
        </mxCell>
        <mxCell id="rP1AdKypDYAx6xf0p9CC-42" value="" style="aspect=fixed;html=1;points=[];align=center;image;fontSize=12;image=img/lib/azure2/compute/Disks_Classic.svg;dashed=1;dashPattern=1 2;strokeColor=#3399FF;strokeWidth=2;fillColor=none;gradientColor=#ffffff;" parent="1" vertex="1">
          <mxGeometry x="1787.5" y="-34.349999999999994" width="28.92" height="28.41" as="geometry" />
        </mxCell>
        <mxCell id="rP1AdKypDYAx6xf0p9CC-44" value="" style="verticalLabelPosition=bottom;html=1;verticalAlign=top;align=center;strokeColor=none;fillColor=#00BEF2;shape=mxgraph.azure.virtual_machine;dashed=1;dashPattern=1 2;" parent="1" vertex="1">
          <mxGeometry x="1892.1100000000004" y="-96.03999999999999" width="40" height="30" as="geometry" />
        </mxCell>
        <mxCell id="rP1AdKypDYAx6xf0p9CC-45" value="" style="verticalLabelPosition=bottom;html=1;verticalAlign=top;align=center;strokeColor=none;fillColor=#00BEF2;shape=mxgraph.azure.virtual_machine;dashed=1;dashPattern=1 2;" parent="1" vertex="1">
          <mxGeometry x="1830.4299999999998" y="-96.03999999999999" width="40" height="30" as="geometry" />
        </mxCell>
        <mxCell id="rP1AdKypDYAx6xf0p9CC-46" value="" style="verticalLabelPosition=bottom;html=1;verticalAlign=top;align=center;strokeColor=none;fillColor=#00BEF2;shape=mxgraph.azure.virtual_machine;dashed=1;dashPattern=1 2;" parent="1" vertex="1">
          <mxGeometry x="1779.46" y="-96.03999999999999" width="45" height="30" as="geometry" />
        </mxCell>
        <mxCell id="rP1AdKypDYAx6xf0p9CC-47" value="" style="aspect=fixed;html=1;points=[];align=center;image;fontSize=12;image=img/lib/azure2/compute/Disks_Classic.svg;dashed=1;dashPattern=1 2;strokeColor=#3399FF;strokeWidth=2;fillColor=none;gradientColor=#ffffff;" parent="1" vertex="1">
          <mxGeometry x="1818.0399999999997" y="-34.349999999999994" width="28.92" height="28.41" as="geometry" />
        </mxCell>
        <mxCell id="rP1AdKypDYAx6xf0p9CC-48" value="" style="aspect=fixed;html=1;points=[];align=center;image;fontSize=12;image=img/lib/azure2/databases/Azure_SQL_VM.svg;dashed=1;dashPattern=1 2;strokeColor=#3399FF;strokeWidth=2;fillColor=none;gradientColor=#ffffff;" parent="1" vertex="1">
          <mxGeometry x="1830.43" y="22.47" width="30.93" height="29" as="geometry" />
        </mxCell>
        <mxCell id="rP1AdKypDYAx6xf0p9CC-49" value="" style="aspect=fixed;html=1;points=[];align=center;image;fontSize=12;image=img/lib/azure2/databases/Azure_SQL_VM.svg;dashed=1;dashPattern=1 2;strokeColor=#3399FF;strokeWidth=2;fillColor=none;gradientColor=#ffffff;" parent="1" vertex="1">
          <mxGeometry x="1882.0000000000002" y="22.46999999999997" width="30.93" height="29" as="geometry" />
        </mxCell>
        <mxCell id="rP1AdKypDYAx6xf0p9CC-50" value="" style="aspect=fixed;html=1;points=[];align=center;image;fontSize=12;image=img/lib/azure2/databases/Azure_SQL_VM.svg;dashed=1;dashPattern=1 2;strokeColor=#3399FF;strokeWidth=2;fillColor=none;gradientColor=#ffffff;" parent="1" vertex="1">
          <mxGeometry x="1793.5300000000002" y="22.47" width="30.93" height="29" as="geometry" />
        </mxCell>
        <mxCell id="rP1AdKypDYAx6xf0p9CC-51" value="" style="aspect=fixed;html=1;points=[];align=center;image;fontSize=12;image=img/lib/azure2/migrate/Recovery_Services_Vaults.svg;dashed=1;dashPattern=1 2;strokeColor=#3399FF;strokeWidth=2;fillColor=none;gradientColor=#ffffff;" parent="1" vertex="1">
          <mxGeometry x="1793.5300000000004" y="80" width="46" height="40" as="geometry" />
        </mxCell>
        <mxCell id="rP1AdKypDYAx6xf0p9CC-52" value="" style="aspect=fixed;html=1;points=[];align=center;image;fontSize=12;image=img/lib/azure2/general/Storage_Container.svg;dashed=1;dashPattern=1 2;strokeColor=#3399FF;strokeWidth=2;fillColor=none;gradientColor=#ffffff;" parent="1" vertex="1">
          <mxGeometry x="1932.11" y="-51.5" width="38.15" height="31" as="geometry" />
        </mxCell>
        <mxCell id="rP1AdKypDYAx6xf0p9CC-53" value="&lt;span style=&quot;font-size: 14px&quot;&gt;&lt;b&gt;Azure Subscription&lt;/b&gt;&lt;/span&gt;" style="text;html=1;strokeColor=none;fillColor=none;align=center;verticalAlign=middle;whiteSpace=wrap;rounded=0;dashed=1;dashPattern=1 2;" parent="1" vertex="1">
          <mxGeometry x="1760" y="-140" width="148.5" height="20" as="geometry" />
        </mxCell>
        <mxCell id="rP1AdKypDYAx6xf0p9CC-55" value="" style="aspect=fixed;html=1;points=[];align=center;image;fontSize=12;image=img/lib/azure2/general/Subscriptions.svg;dashed=1;dashPattern=1 2;strokeColor=#3399FF;strokeWidth=2;fillColor=none;gradientColor=#ffffff;" parent="1" vertex="1">
          <mxGeometry x="1741.41" y="-126.04" width="18.59" height="30" as="geometry" />
        </mxCell>
        <mxCell id="rP1AdKypDYAx6xf0p9CC-56" value="&lt;b&gt;&lt;font style=&quot;font-size: 14px&quot;&gt;Hub&lt;/font&gt;&lt;/b&gt;" style="text;html=1;strokeColor=none;fillColor=none;align=center;verticalAlign=middle;whiteSpace=wrap;rounded=0;dashed=1;dashPattern=1 2;" parent="1" vertex="1">
          <mxGeometry x="1413.18" y="-129" width="63.32" height="20" as="geometry" />
        </mxCell>
        <mxCell id="rP1AdKypDYAx6xf0p9CC-57" value="Virtual Machines" style="text;html=1;strokeColor=none;fillColor=none;align=center;verticalAlign=middle;whiteSpace=wrap;rounded=0;dashed=1;dashPattern=1 2;" parent="1" vertex="1">
          <mxGeometry x="1797.29" y="-56" width="106.27" height="20" as="geometry" />
        </mxCell>
        <mxCell id="rP1AdKypDYAx6xf0p9CC-58" value="VNet Peering" style="text;html=1;strokeColor=none;fillColor=none;align=center;verticalAlign=middle;whiteSpace=wrap;rounded=0;dashed=1;dashPattern=1 2;" parent="1" vertex="1">
          <mxGeometry x="1640" y="22.470000000000027" width="106.27" height="20" as="geometry" />
        </mxCell>
        <mxCell id="rP1AdKypDYAx6xf0p9CC-59" value="storage" style="text;html=1;strokeColor=none;fillColor=none;align=center;verticalAlign=middle;whiteSpace=wrap;rounded=0;dashed=1;dashPattern=1 2;" parent="1" vertex="1">
          <mxGeometry x="1893.77" y="-20.5" width="106.27" height="20" as="geometry" />
        </mxCell>
        <mxCell id="rP1AdKypDYAx6xf0p9CC-60" value="Disks" style="text;html=1;strokeColor=none;fillColor=none;align=center;verticalAlign=middle;whiteSpace=wrap;rounded=0;dashed=1;dashPattern=1 2;" parent="1" vertex="1">
          <mxGeometry x="1787.5" y="-9.5" width="106.27" height="20" as="geometry" />
        </mxCell>
        <mxCell id="rP1AdKypDYAx6xf0p9CC-61" value="SQL VM" style="text;html=1;strokeColor=none;fillColor=none;align=center;verticalAlign=middle;whiteSpace=wrap;rounded=0;dashed=1;dashPattern=1 2;" parent="1" vertex="1">
          <mxGeometry x="1797.29" y="51.47" width="106.27" height="20" as="geometry" />
        </mxCell>
        <mxCell id="rP1AdKypDYAx6xf0p9CC-62" value="&amp;nbsp; Service Recovery Vault" style="text;html=1;strokeColor=none;fillColor=none;align=center;verticalAlign=middle;whiteSpace=wrap;rounded=0;dashed=1;dashPattern=1 2;" parent="1" vertex="1">
          <mxGeometry x="1842.68" y="90" width="109.57" height="20" as="geometry" />
        </mxCell>
        <mxCell id="rP1AdKypDYAx6xf0p9CC-63" value="" style="rounded=0;whiteSpace=wrap;html=1;dashed=1;strokeColor=#3399FF;strokeWidth=2;fillColor=none;gradientColor=#ffffff;glass=0;" parent="1" vertex="1">
          <mxGeometry x="1376" y="-154.5" width="647" height="390.5" as="geometry" />
        </mxCell>
        <mxCell id="rP1AdKypDYAx6xf0p9CC-130" value="&lt;b&gt;&lt;font style=&quot;font-size: 18px&quot; color=&quot;#000099&quot;&gt;AZURE Public Cloud&lt;/font&gt;&lt;/b&gt;" style="text;html=1;strokeColor=none;fillColor=none;align=center;verticalAlign=middle;whiteSpace=wrap;rounded=0;dashed=1;dashPattern=1 2;" parent="1" vertex="1">
          <mxGeometry x="1355.5600000000004" y="231" width="410.87" height="35" as="geometry" />
        </mxCell>
        <mxCell id="rP1AdKypDYAx6xf0p9CC-136" value="&lt;font style=&quot;font-size: 14px&quot;&gt;Site to Site VPN/ Express Route Connectivity&lt;/font&gt;" style="text;html=1;strokeColor=none;fillColor=none;align=center;verticalAlign=middle;whiteSpace=wrap;rounded=0;dashed=1;dashPattern=1 2;" parent="1" vertex="1">
          <mxGeometry x="1190" y="-28.5" width="170" height="39" as="geometry" />
        </mxCell>
        <mxCell id="iWLfDNLfmEGilAZp9pBV-7" value="" style="verticalLabelPosition=bottom;html=1;verticalAlign=top;align=center;strokeColor=none;fillColor=#00BEF2;shape=mxgraph.azure.azure_subscription;" parent="1" vertex="1">
          <mxGeometry x="1400" y="-175" width="50" height="35" as="geometry" />
        </mxCell>
        <mxCell id="iWLfDNLfmEGilAZp9pBV-8" value="" style="outlineConnect=0;dashed=0;verticalLabelPosition=bottom;verticalAlign=top;align=center;html=1;shape=mxgraph.aws3.vpn_gateway;fillColor=#F58536;gradientColor=none;" parent="1" vertex="1">
          <mxGeometry x="1360" y="-50.5" width="30" height="30" as="geometry" />
        </mxCell>
        <mxCell id="iWLfDNLfmEGilAZp9pBV-9" value="One Housing Group" style="outlineConnect=0;gradientColor=none;html=1;whiteSpace=wrap;fontSize=12;fontStyle=0;shape=mxgraph.aws4.group;grIcon=mxgraph.aws4.group_on_premise;strokeColor=#858B94;fillColor=none;verticalAlign=top;align=left;spacingLeft=30;fontColor=#858B94;dashed=0;" parent="1" vertex="1">
          <mxGeometry x="1050" y="-100.75" width="120" height="120.5" as="geometry" />
        </mxCell>
        <mxCell id="iWLfDNLfmEGilAZp9pBV-10" value="" style="verticalLabelPosition=bottom;html=1;verticalAlign=top;align=center;strokeColor=none;fillColor=#00BEF2;shape=mxgraph.azure.enterprise;pointerEvents=1;" parent="1" vertex="1">
          <mxGeometry x="1080" y="-55.94" width="30" height="50" as="geometry" />
        </mxCell>
        <mxCell id="iWLfDNLfmEGilAZp9pBV-13" style="edgeStyle=orthogonalEdgeStyle;rounded=0;orthogonalLoop=1;jettySize=auto;html=1;entryX=0;entryY=0.5;entryDx=0;entryDy=0;entryPerimeter=0;dashed=1;startArrow=classic;startFill=1;strokeColor=#3333FF;" parent="1" source="iWLfDNLfmEGilAZp9pBV-12" target="iWLfDNLfmEGilAZp9pBV-8" edge="1">
          <mxGeometry relative="1" as="geometry" />
        </mxCell>
        <mxCell id="iWLfDNLfmEGilAZp9pBV-12" value="" style="outlineConnect=0;dashed=0;verticalLabelPosition=bottom;verticalAlign=top;align=center;html=1;shape=mxgraph.aws3.vpn_gateway;fillColor=#F58536;gradientColor=none;" parent="1" vertex="1">
          <mxGeometry x="1160" y="-50.5" width="30" height="30" as="geometry" />
        </mxCell>
        <mxCell id="pTDjZlMbSXBoXlG2Xin--2" value="" style="rounded=0;whiteSpace=wrap;html=1;dashed=1;dashPattern=1 2;strokeColor=#3399FF;strokeWidth=2;fillColor=none;gradientColor=#ffffff;" vertex="1" parent="1">
          <mxGeometry x="1759" y="173" width="180.02" height="53" as="geometry" />
        </mxCell>
        <mxCell id="pTDjZlMbSXBoXlG2Xin--9" value="" style="aspect=fixed;html=1;points=[];align=center;image;fontSize=12;image=img/lib/azure2/databases/SQL_Server.svg;dashed=1;dashPattern=1 2;strokeColor=#3333FF;" vertex="1" parent="1">
          <mxGeometry x="1884" y="181" width="35" height="35" as="geometry" />
        </mxCell>
        <mxCell id="pTDjZlMbSXBoXlG2Xin--10" value="" style="aspect=fixed;html=1;points=[];align=center;image;fontSize=12;image=img/lib/azure2/databases/SQL_Server.svg;dashed=1;dashPattern=1 2;strokeColor=#3333FF;" vertex="1" parent="1">
          <mxGeometry x="1948" y="34" width="35" height="35" as="geometry" />
        </mxCell>
        <mxCell id="pTDjZlMbSXBoXlG2Xin--11" value="SQL Server" style="text;html=1;strokeColor=none;fillColor=none;align=center;verticalAlign=middle;whiteSpace=wrap;rounded=0;dashed=1;dashPattern=1 2;" vertex="1" parent="1">
          <mxGeometry x="1900.02" y="64.00000000000003" width="106.27" height="20" as="geometry" />
        </mxCell>
        <mxCell id="pTDjZlMbSXBoXlG2Xin--12" value="&lt;span style=&quot;font-size: 14px&quot;&gt;&lt;b&gt;DMP&lt;/b&gt;&lt;/span&gt;" style="text;html=1;strokeColor=none;fillColor=none;align=center;verticalAlign=middle;whiteSpace=wrap;rounded=0;dashed=1;dashPattern=1 2;" vertex="1" parent="1">
          <mxGeometry x="1759" y="148" width="34.61" height="20" as="geometry" />
        </mxCell>
        <mxCell id="pTDjZlMbSXBoXlG2Xin--14" value="VNet Peering" style="text;html=1;strokeColor=none;fillColor=none;align=center;verticalAlign=middle;whiteSpace=wrap;rounded=0;dashed=1;dashPattern=1 2;" vertex="1" parent="1">
          <mxGeometry x="1858.98" y="140.00000000000003" width="106.27" height="20" as="geometry" />
        </mxCell>
      </root>
    </mxGraphModel>
  </diagram>
</mxfile>
